<svg width="165" height="151" viewBox="0 0 165 151" fill="none" xmlns="http://www.w3.org/2000/svg">
<path d="M163.915 137.711C153.441 120.273 137.087 106.686 117.484 99.1365C127.232 92.2008 134.433 82.5313 138.066 71.4976C141.7 60.464 141.581 48.6256 137.728 37.6593C133.874 26.6931 126.481 17.1549 116.596 10.396C106.711 3.63706 94.8343 0 82.6489 0C70.4635 0 58.5869 3.63706 48.7016 10.396C38.8163 17.1549 31.4234 26.6931 27.57 37.6593C23.7166 48.6256 23.5982 60.464 27.2315 71.4976C30.8648 82.5313 38.0656 92.2008 47.8139 99.1365C28.211 106.686 11.8564 120.273 1.38262 137.711C0.733633 138.701 0.301083 139.805 0.11069 140.957C-0.0797029 142.108 -0.0240537 143.284 0.274331 144.415C0.572715 145.546 1.10774 146.609 1.84761 147.539C2.58747 148.47 3.51707 149.25 4.58113 149.834C5.64519 150.417 6.822 150.791 8.04159 150.934C9.26119 151.077 10.4987 150.986 11.6805 150.667C12.8623 150.347 13.9643 149.805 14.9209 149.074C15.8776 148.342 16.6694 147.435 17.2493 146.407C31.0916 123.71 55.5372 110.173 82.6489 110.173C109.761 110.173 134.206 123.718 148.048 146.407C149.305 148.324 151.299 149.703 153.607 150.251C155.916 150.799 158.358 150.474 160.419 149.345C162.479 148.215 163.996 146.37 164.649 144.199C165.301 142.028 165.038 139.702 163.915 137.711ZM42.9248 55.0976C42.9248 47.6445 45.2546 40.3588 49.6195 34.1618C53.9845 27.9647 60.1885 23.1348 67.4471 20.2826C74.7058 17.4304 82.6929 16.6842 90.3987 18.1382C98.1044 19.5922 105.183 23.1812 110.738 28.4513C116.294 33.7215 120.077 40.436 121.61 47.7459C123.142 55.0557 122.356 62.6326 119.349 69.5184C116.342 76.4041 111.251 82.2895 104.718 86.4302C98.1858 90.5709 90.5056 92.781 82.6489 92.781C72.1171 92.7695 62.0202 88.7956 54.5731 81.7311C47.126 74.6665 42.937 65.0883 42.9248 55.0976Z" fill="white"/>
</svg>
