<svg width="132" height="35" viewBox="0 0 132 35" fill="none" xmlns="http://www.w3.org/2000/svg">
<path d="M44.017 23H41.3807L45.3977 11.3636H48.5682L52.5795 23H49.9432L47.0284 14.0227H46.9375L44.017 23ZM43.8523 18.4261H50.0795V20.3466H43.8523V18.4261ZM59.5312 19.2841V14.2727H61.9517V23H59.6278V21.4148H59.5369C59.34 21.9261 59.0123 22.3371 58.554 22.6477C58.0994 22.9583 57.5445 23.1136 56.8892 23.1136C56.3059 23.1136 55.7926 22.9811 55.3494 22.7159C54.9063 22.4508 54.5597 22.0739 54.3097 21.5852C54.0634 21.0966 53.9384 20.5114 53.9347 19.8295V14.2727H56.3551V19.3977C56.3589 19.9129 56.4972 20.3201 56.7699 20.6193C57.0426 20.9186 57.4081 21.0682 57.8665 21.0682C58.1581 21.0682 58.4309 21.0019 58.6847 20.8693C58.9384 20.733 59.143 20.5322 59.2983 20.267C59.4574 20.0019 59.535 19.6742 59.5312 19.2841ZM68.5298 14.2727V16.0909H63.2741V14.2727H68.5298ZM64.4673 12.1818H66.8878V20.3182C66.8878 20.5417 66.9219 20.7159 66.9901 20.8409C67.0582 20.9621 67.1529 21.0473 67.2741 21.0966C67.3991 21.1458 67.5431 21.1705 67.706 21.1705C67.8196 21.1705 67.9332 21.161 68.0469 21.142C68.1605 21.1193 68.2476 21.1023 68.3082 21.0909L68.6889 22.892C68.5677 22.9299 68.3973 22.9735 68.1776 23.0227C67.9579 23.0758 67.6908 23.108 67.3764 23.1193C66.7931 23.142 66.2817 23.0644 65.8423 22.8864C65.4067 22.7083 65.0677 22.4318 64.8253 22.0568C64.5829 21.6818 64.4635 21.2083 64.4673 20.6364V12.1818ZM73.956 23.1705C73.0734 23.1705 72.3101 22.983 71.6662 22.608C71.026 22.2292 70.5317 21.7027 70.1832 21.0284C69.8348 20.3504 69.6605 19.5644 69.6605 18.6705C69.6605 17.7689 69.8348 16.9811 70.1832 16.3068C70.5317 15.6288 71.026 15.1023 71.6662 14.7273C72.3101 14.3485 73.0734 14.1591 73.956 14.1591C74.8385 14.1591 75.5999 14.3485 76.2401 14.7273C76.884 15.1023 77.3802 15.6288 77.7287 16.3068C78.0772 16.9811 78.2514 17.7689 78.2514 18.6705C78.2514 19.5644 78.0772 20.3504 77.7287 21.0284C77.3802 21.7027 76.884 22.2292 76.2401 22.608C75.5999 22.983 74.8385 23.1705 73.956 23.1705ZM73.9673 21.2955C74.3688 21.2955 74.7041 21.1818 74.973 20.9545C75.242 20.7235 75.4446 20.4091 75.581 20.0114C75.7211 19.6136 75.7912 19.161 75.7912 18.6534C75.7912 18.1458 75.7211 17.6932 75.581 17.2955C75.4446 16.8977 75.242 16.5833 74.973 16.3523C74.7041 16.1212 74.3688 16.0057 73.9673 16.0057C73.562 16.0057 73.2211 16.1212 72.9446 16.3523C72.6719 16.5833 72.4654 16.8977 72.3253 17.2955C72.1889 17.6932 72.1207 18.1458 72.1207 18.6534C72.1207 19.161 72.1889 19.6136 72.3253 20.0114C72.4654 20.4091 72.6719 20.7235 72.9446 20.9545C73.2211 21.1818 73.562 21.2955 73.9673 21.2955ZM79.8707 23V11.3636H84.4616C85.3442 11.3636 86.0961 11.5322 86.7173 11.8693C87.3385 12.2027 87.812 12.6667 88.1378 13.2614C88.4673 13.8523 88.6321 14.5341 88.6321 15.3068C88.6321 16.0795 88.4654 16.7614 88.1321 17.3523C87.7988 17.9432 87.3158 18.4034 86.6832 18.733C86.0545 19.0625 85.2931 19.2273 84.3991 19.2273H81.473V17.2557H84.0014C84.4749 17.2557 84.8651 17.1742 85.1719 17.0114C85.4825 16.8447 85.7135 16.6155 85.8651 16.3239C86.0204 16.0284 86.098 15.6894 86.098 15.3068C86.098 14.9205 86.0204 14.5833 85.8651 14.2955C85.7135 14.0038 85.4825 13.7784 85.1719 13.6193C84.8613 13.4564 84.4673 13.375 83.9901 13.375H82.331V23H79.8707ZM92.4389 23.1648C91.8821 23.1648 91.3859 23.0682 90.9503 22.875C90.5147 22.678 90.17 22.3883 89.9162 22.0057C89.6662 21.6193 89.5412 21.1383 89.5412 20.5625C89.5412 20.0777 89.6302 19.6705 89.8082 19.3409C89.9863 19.0114 90.2287 18.7462 90.5355 18.5455C90.8423 18.3447 91.1908 18.1932 91.581 18.0909C91.9749 17.9886 92.3878 17.9167 92.8196 17.875C93.3272 17.822 93.7363 17.7727 94.0469 17.7273C94.3575 17.678 94.5829 17.6061 94.723 17.5114C94.8632 17.4167 94.9332 17.2765 94.9332 17.0909V17.0568C94.9332 16.697 94.8196 16.4186 94.5923 16.2216C94.3688 16.0246 94.0507 15.9261 93.6378 15.9261C93.2022 15.9261 92.8556 16.0227 92.598 16.2159C92.3404 16.4053 92.17 16.6439 92.0866 16.9318L89.848 16.75C89.9616 16.2197 90.1851 15.7614 90.5185 15.375C90.8518 14.9848 91.2817 14.6856 91.8082 14.4773C92.3385 14.2652 92.9522 14.1591 93.6491 14.1591C94.134 14.1591 94.598 14.2159 95.0412 14.3295C95.4882 14.4432 95.884 14.6193 96.2287 14.858C96.5772 15.0966 96.8518 15.4034 97.0526 15.7784C97.2533 16.1496 97.3537 16.5947 97.3537 17.1136V23H95.0582V21.7898H94.9901C94.8499 22.0625 94.6624 22.303 94.4276 22.5114C94.1927 22.7159 93.9105 22.8769 93.581 22.9943C93.2514 23.108 92.8707 23.1648 92.4389 23.1648ZM93.1321 21.4943C93.4882 21.4943 93.8026 21.4242 94.0753 21.2841C94.348 21.1402 94.562 20.947 94.7173 20.7045C94.8726 20.4621 94.9503 20.1875 94.9503 19.8807V18.9545C94.8745 19.0038 94.7704 19.0492 94.6378 19.0909C94.509 19.1288 94.3632 19.1648 94.2003 19.1989C94.0374 19.2292 93.8745 19.2576 93.7116 19.2841C93.5488 19.3068 93.401 19.3277 93.2685 19.3466C92.9844 19.3883 92.7363 19.4545 92.5241 19.5455C92.312 19.6364 92.1473 19.7595 92.0298 19.9148C91.9124 20.0663 91.8537 20.2557 91.8537 20.483C91.8537 20.8125 91.973 21.0644 92.2116 21.2386C92.4541 21.4091 92.7609 21.4943 93.1321 21.4943ZM99.2315 23V14.2727H101.578V15.7955H101.669C101.828 15.2538 102.095 14.8447 102.47 14.5682C102.845 14.2879 103.277 14.1477 103.766 14.1477C103.887 14.1477 104.018 14.1553 104.158 14.1705C104.298 14.1856 104.421 14.2064 104.527 14.233V16.3807C104.413 16.3466 104.256 16.3163 104.055 16.2898C103.855 16.2633 103.671 16.25 103.504 16.25C103.148 16.25 102.83 16.3277 102.55 16.483C102.273 16.6345 102.054 16.8466 101.891 17.1193C101.732 17.392 101.652 17.7064 101.652 18.0625V23H99.2315ZM110.858 14.2727V16.0909H105.602V14.2727H110.858ZM106.795 12.1818H109.216V20.3182C109.216 20.5417 109.25 20.7159 109.318 20.8409C109.386 20.9621 109.481 21.0473 109.602 21.0966C109.727 21.1458 109.871 21.1705 110.034 21.1705C110.148 21.1705 110.261 21.161 110.375 21.142C110.489 21.1193 110.576 21.1023 110.636 21.0909L111.017 22.892C110.896 22.9299 110.725 22.9735 110.506 23.0227C110.286 23.0758 110.019 23.108 109.705 23.1193C109.121 23.142 108.61 23.0644 108.17 22.8864C107.735 22.7083 107.396 22.4318 107.153 22.0568C106.911 21.6818 106.792 21.2083 106.795 20.6364V12.1818ZM119.587 16.7614L117.371 16.8977C117.333 16.7083 117.251 16.5379 117.126 16.3864C117.001 16.2311 116.837 16.108 116.632 16.017C116.431 15.9223 116.191 15.875 115.911 15.875C115.536 15.875 115.219 15.9545 114.962 16.1136C114.704 16.2689 114.575 16.4773 114.575 16.7386C114.575 16.947 114.659 17.1231 114.825 17.267C114.992 17.411 115.278 17.5265 115.683 17.6136L117.263 17.9318C118.111 18.1061 118.744 18.3864 119.161 18.7727C119.577 19.1591 119.786 19.6667 119.786 20.2955C119.786 20.8674 119.617 21.3693 119.28 21.8011C118.946 22.233 118.488 22.5701 117.905 22.8125C117.325 23.0511 116.657 23.1705 115.899 23.1705C114.744 23.1705 113.823 22.9299 113.138 22.4489C112.456 21.964 112.056 21.3049 111.939 20.4716L114.32 20.3466C114.392 20.6989 114.566 20.9678 114.842 21.1534C115.119 21.3352 115.473 21.4261 115.905 21.4261C116.329 21.4261 116.67 21.3447 116.928 21.1818C117.189 21.0152 117.321 20.8011 117.325 20.5398C117.321 20.3201 117.229 20.1402 117.047 20C116.865 19.8561 116.585 19.7462 116.206 19.6705L114.695 19.3693C113.842 19.1989 113.208 18.9034 112.791 18.483C112.378 18.0625 112.172 17.5265 112.172 16.875C112.172 16.3144 112.323 15.8314 112.626 15.4261C112.933 15.0208 113.363 14.7083 113.916 14.4886C114.473 14.2689 115.125 14.1591 115.871 14.1591C116.973 14.1591 117.84 14.392 118.473 14.858C119.109 15.3239 119.481 15.9583 119.587 16.7614Z" fill="white"/>
<path d="M31.622 27.7761L29.7761 29.622C29.5326 29.8641 29.2031 30 28.8597 30C28.5163 30 28.1868 29.8641 27.9433 29.622L12.5005 14.2046C12.0778 14.3271 11.6407 14.3926 11.2006 14.3996C10.373 14.399 9.55743 14.2008 8.82179 13.8216C8.08615 13.4423 7.45167 12.8929 6.97109 12.2191C6.49052 11.5452 6.17774 10.7664 6.05875 9.94733C5.93977 9.12825 6.01802 8.2926 6.28701 7.50986L9.58875 10.8117L10.2777 10.1228L12.1235 8.27683L12.8125 7.58786L9.51075 4.28599C10.2935 4.01699 11.1291 3.93874 11.9481 4.05773C12.7672 4.17671 13.546 4.48951 14.2198 4.9701C14.8936 5.4507 15.443 6.08521 15.8222 6.82088C16.2015 7.55654 16.3996 8.37212 16.4002 9.19979C16.3933 9.63985 16.3277 10.077 16.2052 10.4997L31.622 25.9431C31.8641 26.1867 32 26.5162 32 26.8596C32 27.203 31.8641 27.5325 31.622 27.7761ZM6.378 25.9431C6.13589 26.1867 6 26.5162 6 26.8596C6 27.203 6.13589 27.5325 6.378 27.7761L8.22385 29.622C8.46741 29.8641 8.79687 30 9.14028 30C9.4837 30 9.81316 29.8641 10.0567 29.622L17.1671 22.5243L13.4884 18.8454M29.3992 4L24.1996 6.5999V9.19979L21.3788 12.0207L23.9786 14.6206L26.7994 11.7997H29.3992L31.999 6.5999L29.3992 4Z" fill="white"/>
</svg>
